<?xml version="1.0"?><svg xmlns="http://www.w3.org/2000/svg" xmlns:xlink="http://www.w3.org/1999/xlink" version="1.1" viewBox="0 0 24 24" style="enable-background:new 0 0 24 24;" xml:space="preserve"><g id="Layer_1"/><g id="Layer_2"><g><path d="M21.293,8.293l-2,2C19.1055,10.4805,19,10.7349,19,11v6.5c0,0.2759-0.2246,0.5-0.5,0.5S18,17.7759,18,17.5V9.1875    c0-1.7009-1.3422-3.0823-3.0215-3.1707C14.8653,3.7851,13.0298,2,10.7705,2h-4.541C3.8975,2,2,3.897,2,6.229V21    c-0.5527,0-1,0.4478-1,1s0.4473,1,1,1h1h11h1c0.5527,0,1-0.4478,1-1s-0.4473-1-1-1V8.0379c0.5626,0.0933,1,0.5613,1,1.1496V17.5    c0,1.3784,1.1211,2.5,2.5,2.5s2.5-1.1216,2.5-2.5v-6.0859l1.707-1.707c0.3906-0.3906,0.3906-1.0234,0-1.4141    S21.6836,7.9023,21.293,8.293z M4,21V6.229C4,5,5,4,6.2295,4h4.541C12,4,13,5,13,6.229v0.7226    C12.9991,6.9686,12.9902,6.9828,12.9902,7S12.9991,7.0314,13,7.0484V21H4z"/><path d="M10,7H7C6.4473,7,6,7.4478,6,8s0.4473,1,1,1h3c0.5527,0,1-0.4478,1-1S10.5527,7,10,7z"/></g></g></svg>